<?xml version="1.0" encoding="UTF-8"?>
<svg id="Camada_2" data-name="Camada 2" xmlns="http://www.w3.org/2000/svg" viewBox="0 0 272.1 253.11">
  <defs>
    <style>
      .cls-1 {
        fill: #333f48;
      }
    </style>
  </defs>
  <g id="Camada_1-2" data-name="Camada 1">
    <g>
      <g>
        <path class="cls-1" d="M160.99,137.65c.43-3.74,1.51-9.25,1.58-9.48.51-1.82,1.81-7.51,8.76-13.1,2.6-2.09,7.8-3.17,12.53-5.42l.29-.02h-.23l-25.9.02-15.62-.02h-1.54c-1.29,0,17.36,2.04,17.43,14.24.04,7.57-5.52,23.37-9.82,35.71l-21.8,63.6c-.22.65-1.14.66-1.37.01-3.54-10-19.68-55.6-26.15-73.91-2.19-6.19-6.32-18.26-7.46-24.46-2.15-11.74,13.29-14.63,15.56-15,.03,0,.01-.04-.01-.04h-49.88s-.04.05,0,.05c1.9.16,7.25.8,10.17,2.9,6.73,4.84,13.33,23.72,18.51,38.12,13.53,37.57,27.07,90.1,30.01,101.69.18.7,1.15.74,1.39.06l32.96-93.03c.44-1.26.72-1.97,1.06-2.88.19-.49.81-.64,1.19-.27,4.01,3.91,12.26,10.31,21.14,14.84,1.88.96,4.12,2.11,5.79,2.69,9.31,3.22,14.81,5.07,26.94,5.07,22.72,0,40.84-20.26,40.84-51.14s-15.69-34.77-42.29-50.57c-22-13.04-32.99-26.26-32.99-45.17,0-17.59,11.08-28.06,27.13-28.06,18.99,0,23.31,4.38,32.17,15.5,2.9,3.64,7.36,11.36,8.14,19.13.01.12.18.11.18,0l.98-25.7c0-.2-.06-.39-.19-.53-5.95-6.24-29.69-11.09-41.99-11.09-20.29,0-38.41,14.98-38.41,41.9s16.86,41.75,38.05,53.23c27.5,14.96,39.04,22.38,39.04,43.8s-12.8,36.14-30.57,36.14-25.85-6.9-36.96-23.4c-2.74-4.07-6.93-13.16-7.39-14.74,0-.02,0,.02,0,0,0-.19-.87-2.37-.72-4.38.09-1.21-.65-1.32-1.06-.38-.22.49-.39.89-.47,1.08-.04.08-.06.16-.07.25-.07.52-.28,2.27-.29,2.25"/>
        <path class="cls-1" d="M122.31,15.87l-4.03-3.31C108.6,4.65,90.73-1.05,73.02.16,31.86,2.97-1.39,47.55.04,90.2c1.42,42.18,34.13,86.87,77.14,85.42,14.12-.48,25.75-6.14,36.15-18.03.28-.48.53-1.01.92-1.4.4-.63.21-.3.65-.92.12-.17.29-.79.4-.95.32-.48.79-1.7.33-1.74-.06-.21-.03-.34-.34-.56-.24-.26-.43-.4-.89-.76-.5-.39-.19-.16-.78-.55-.03-.02-1.06,2.06-1.08,2.02-8.98,11.05-17.32,17.86-34.56,16.27-41.47-3.83-54.81-37.97-56.97-76.95C18.58,47.89,31.71,15.07,61.69,5.36,80.66-.78,112.31,1.3,117.46,40.52c.01.1.04-2.33.04-2.23l-.36,3.97,5.18-26.39Z"/>
        <path class="cls-1" d="M104.17,149.88l6.44,4.17,3.45,3.28,3.5,5.62,1.37,2.61,2.15-2.44-1.44-9.74,8.09-7.92,12.11,18.71,2.56-2.95-6.28-23.84s5.15-4.83,6.81-6.7c.63-.71,2.44-3.12,2.84-3.98.36-.78.45-3.13-.05-3.77-.48-.61-2.29-1.03-3.12-.83s-2.1.76-2.86,1.18c-1.01.56-2.93,2.54-2.93,2.54l-2.22,2.29-1.94,1.67-1.54,1.52-.85.61-21.73-6.55-2.85,2.57,5.08,3.79,4.32,3.23,5.8,4.2,2.64,1.85-7.43,8.13-9.78-1.62-2.13,2.37Z"/>
      </g>
      <g>
        <path class="cls-1" d="M155.69,211.34l4.62-9.9c.59-1.28,1.59-3.62,1.62-4.36.07-1.5-1.09-.94-2.86-1.05h-.14v-.22h6.76v.22h-.08c-1.04,0-2.61-.31-3.23.86-.53.98-1.03,2.97-1.7,4.37l-4.98,10.5h0l-.45-.86-.24-.46-4.61-10.54s-1.24-2.91-2.11-3.59c-.71-.55-2.25-.32-2.25-.32l-.02-.18h8.33s-.02.16-.02.16c0,0-1.21,0-2.18.02-.41,0-.48.58-.31.88.39.68.96,1.52,1.57,2.55.67,1.14,1.29,2.49,1.66,3.25.57,1.19.95,1.55.74,2.69-.07.39-.49,1.34-.71,1.8-.62,1.27-.4,2.2-.13,2.77"/>
        <path class="cls-1" d="M173.26,210.51c0,.43.2.78.59.78h2.27v.21h-9.13v-.21h2.21c.43,0,.78-.38.78-.86l.12-12.59c0-.44-.35-.78-.75-.72l-1.97.33v-.13c2.17-.38,3.44-.81,5.1-1.44.36-.13.9.28.9.7l-.13,13.94ZM171.62,190.66c-1.1,0-1.98-.7-1.98-1.65s.88-1.65,1.98-1.65,1.98.7,1.98,1.65-.9,1.65-1.98,1.65Z"/>
        <path class="cls-1" d="M216.03,193.99c-.4-.4-1.83-.76-3.37-.39-1.42.34-2.72,1.71-3.19,2.54-.09-.04-.17-.08-.26-.11l-.61-.22c-.94-.29-2-.46-3.1-.46-4.79,0-7.35,2.98-7.35,5.8,0,2,1.27,3.73,3.35,4.72h0s.02,0,.02,0c.05.02.17.08.14.07-.04-.02.11.04.15.07,0,0,0,0,0,0,.01,0,.02,0,.03.01.08.03.15.07.23.11,1.04.41,2.26.63,3.6.63,4.85,0,7.52-2.94,7.52-5.77,0-2.06-1.4-3.81-3.56-4.79.76-.7,2.36-1.55,3.83.35.96,1.23,2.22.07,2.34-.04.84-.82,1.01-1.75.22-2.53ZM210.18,200.95c0,2.84-1.28,5.6-4.39,5.6s-4.32-2.66-4.32-5.42,1.17-5.56,4.32-5.56,4.39,2.54,4.39,5.38Z"/>
        <path class="cls-1" d="M232.85,208.57c-1.28,1.92-3.87,3.55-6.9,3.55-4.67,0-9.27-3.32-9.27-8.25s4.36-8.31,9.21-8.31,7.25,3.44,7.25,6.86c0,.17,0,.34-.02.51h-15.14c-.09.03-.18.1.24.14,2.14.23,2.32,2.62,3.8,5.28,1.22,2.2,3.28,3.24,3.91,3.33,2.4.37,5.74-1.38,6.92-3.12h0ZM229.73,202.67c.02-.24,0-.55,0-.78,0-2.98-1.46-6.1-4.44-6.1s-4.65,3.27-4.87,6.93l9.31-.04Z"/>
        <path class="cls-1" d="M253.45,210.5c0,.53.38.95.86.95h2.32v.22h-9.6v-.22h2.16c.47,0,.86-.43.86-.95v-10.74c0-2.59-1.18-3.68-3.02-3.68-3.73,0-5.3,4.54-5.3,6.67v7.74c0,.53.38.95.86.95h2.16v.22h-9.6v-.22h2.32c.47,0,.86-.43.86-.95l.04-12.93c-.03-.66-.73-.44-1.38-.32l-1.22.25h0c2.87-1.1,3.77-1.5,5.51-1.95.49-.13.62-.07.57.68l-.15,4.92c.57-2.28,2.14-5.58,6.42-5.58,3.42,0,5.32,2.04,5.32,5.62v9.32Z"/>
        <path class="cls-1" d="M271.13,201.21c-.41-2.76-3.37-5.44-6.67-5.44-2.3,0-3.99,1.16-3.99,2.69,0,1.89,2.24,2.72,5.48,3.68,3.28.95,6.15,1.87,6.15,4.94s-2.79,5.04-6.17,5.04c-1.82,0-2.71-.27-3.94-.78-.29-.12-.42-.22-1.14-.29-.75-.08-1.45.17-1.77.99h0l-.24-5.82h0c.33,2.42,3.17,5.69,7.08,5.69,2.67,0,4.34-1.28,4.34-3.1,0-2.11-2.39-2.59-5.85-3.58-3.38-.97-5.34-2.55-5.34-5.25,0-2.98,2.73-4.41,5.4-4.41,1.52,0,2.98.72,3.87,1.06.28.1.58.22.82.25,1,.15.41.07,1.52.21l.53.09-.09,4.06h0Z"/>
        <path class="cls-1" d="M190.42,202.91s1.59-.16,2.91,1.03c.95.86.71,1.75.68,2.29-.03.71-.29,4.05.25,4.62.81.85,1.87.53,2.9.52h0c-1.44.33-3.32.86-4.89.09-1.98-.97-1.84-4.28-1.76-6.06-.18,3.64-2.66,6.69-6.33,6.74-2.39.04-4.7-1.1-5.04-3.76-.3-2.39.77-3.37,3.71-4.35.93-.31,2-.47,2.84-.75,2.24-.72,3.78-1.65,3.78-3.87,0-2.04-.96-3.93-4.49-3.84-3.08.07-3.97,1.07-4.19,1.34s-.34.49,0,.74l.2.12s.37.15.37.15c1.9.4,1.7,2.05-.08,2.34-1.13.18-2.19-.42-2.19-1.6,0-1.87,2.33-3.21,6.27-3.21,3.64,0,6.63.26,7.5,2.34.31.74.43,1.24.22,2.56-.06.35-.83,2.22-3.38,2.5M190.16,204.17c-.67-1.35-1.08-1.61-2.22-1.42-.41.07-.57.09-1.87.62-.81.33-1.07.41-1.53.72-1.04.69-2.05,1.78-2.21,2.65-.35,2,1.55,5.06,4.23,4.37.96-.25,1.99-1.12,2.52-1.94.32-.5.63-.93.79-1.43.6-1.82.49-2.4.5-2.67,0-.06-.03-.38-.06-.48l-.15-.41Z"/>
        <path class="cls-1" d="M202.76,205.82c-.6.1-1.37.18-1.77.28-.3.08-1.19.49-1.18,1.2s.83,1.35,1.1,1.57c.87.7.61.48,1.16.78.46.26,1.36.59,1.39.61,0,0,0,0,0,0l3.46,1.7,8.05,3.57s2.17.82,2.92,1.01c1.36.34,2.33.2,2.97-.16.78-.44,1.29-1.45,1.2-1.95-.09-.47-.48-.91-.8-1.25s-1.07-.53-1.54-.56c-.37-.02-.96-.02-1.37.03-.6.08-1,.21-1.74.54-.42.19-1.18,1.07-1.28,1.22,0,0-.1.16-.11.16-.09.1-2.09,3.65-2.8,4.71-.38.57-.72,1.13-1.53,2-.5.54-1.19,1.16-2.71,1.81-.9.38-2.44.88-4.35.47-.92-.2-2.7-.88-3.55-1.71-.58-.56-1.24-1.25-1.64-2.02-1.13-2.18-.54-3.75-.29-4.39s.35-.73.62-1.25c.32-.63.99-1.52,1.45-1.99.97-.99,3.51-2.71,4.7-3.15,1.32-.49,3.53-.61,4.89-.61.61,0,2.76.08,2.94.09,0,0,.01,0,.02,0,.11-.03,1.06-.38,1.3-.83.18-.33.65-1.63.65-1.63h0l-.09,5.6h0s-.21-.84-.32-1.25c-.08-.27-.15-.9-.55-1.17-.22-.15-.89-.41-1.01-.46,0,0-.02,0-.03,0-.19,0-2.2-.04-2.92-.06-1.3-.03-3.42.12-4.63.53-.86.29-2.9,1.57-2.96,1.61,0,0,0,0,0,0-.04.03-1.49,1.16-1.96,1.62-.4.39-.95,1.16-1.07,1.4-.18.35-.62,1-.7,1.63-.05.41.25,1.14.43,1.49.26.51,1.01,1.26,1.43,1.61.52.43,1.7,1.1,2.29,1.39.72.35,2.59.92,3.63.78,1.21-.16,5.13-.73,5.84-1.69.9-1.22.56-.91,1.22-1.94.6-.94,1.17-2.28,2.07-3.32.25-.29.64-.59.83-.71.68-.39,1.18-.48,1.71-.59.7-.14,1.71-.13,2.37.05.59.16,1.1.61,1.48,1.23.2.32.28.7.3,1.11.03.58-.15,1-.33,1.51-.4,1.1-1.7,2.35-3.85,2.47-1.35.08-4.29-.87-4.39-.9,0,0,0,0,0,0l-5.24-2.62-5.6-2.51s-2.74-1.17-3.59-1.73-1.18-1.39-1.23-2.02.25-1.63.83-2.22,2.54-1.16,3.2-1.18c.33,0,.64-.04.64-.04,0,0,.05.13.02.13Z"/>
      </g>
    </g>
  </g>
</svg>